<?xml version="1.0" standalone="no"?>
<!DOCTYPE svg PUBLIC "-//W3C//DTD SVG 20010904//EN"
 "http://www.w3.org/TR/2001/REC-SVG-20010904/DTD/svg10.dtd">
<svg version="1.0" xmlns="http://www.w3.org/2000/svg"
 width="184.000000pt" height="184.000000pt" viewBox="0 0 184.000000 184.000000"
 preserveAspectRatio="xMidYMid meet">

<g transform="translate(0.000000,184.000000) scale(0.100000,-0.100000)"
fill="#000000" stroke="none">
<path d="M926 1701 c-69 -46 -72 -105 -14 -257 39 -104 42 -115 42 -221 1 -80
-3 -116 -12 -125 -22 -21 -37 11 -61 130 -46 227 -91 328 -172 388 -135 99
-315 -4 -259 -150 5 -14 34 -58 64 -98 89 -117 137 -268 135 -425 -1 -43 -3
-70 -6 -60 -6 22 -31 22 -126 -2 -126 -33 -189 -75 -190 -126 0 -108 266 -173
661 -162 261 7 402 35 479 93 97 73 47 142 -137 193 -90 25 -90 25 -90 5 0
-10 -11 3 -24 27 -13 25 -29 54 -36 66 -11 17 -10 35 3 104 39 200 46 394 17
492 -13 43 -70 111 -111 133 -41 21 -128 18 -163 -5z m171 -62 c42 -39 65
-104 70 -199 5 -90 -17 -289 -43 -396 l-16 -62 36 -52 c40 -58 62 -122 72
-209 5 -51 4 -59 -12 -66 -27 -10 -399 -19 -468 -11 l-56 8 7 51 c5 29 8 126
8 217 0 140 -4 177 -23 243 -27 95 -67 177 -120 243 -71 90 -79 125 -37 166
74 74 188 21 250 -114 14 -31 40 -121 56 -200 37 -171 50 -204 84 -220 22 -10
32 -9 53 3 40 22 55 84 48 199 -6 101 -18 154 -60 263 -34 88 -34 120 2 147
36 29 111 24 149 -11z m230 -844 c0 -8 -4 -12 -9 -9 -5 3 -6 10 -3 15 9 13 12
11 12 -6z m48 -57 c39 -18 30 -35 -29 -52 -66 -19 -76 -20 -76 -3 0 17 20 42
45 55 25 14 29 14 60 0z m-762 -40 c12 -15 18 -31 14 -34 -9 -9 -126 16 -134
29 -10 17 30 38 66 35 23 -2 40 -12 54 -30z"/>
<path d="M997 1603 c-20 -19 11 -112 46 -142 21 -16 47 11 47 49 0 35 -17 82
-33 92 -15 10 -51 10 -60 1z"/>
<path d="M572 1538 c-22 -22 -12 -53 33 -101 55 -61 79 -60 83 1 3 38 -1 47
-31 77 -36 36 -64 44 -85 23z"/>
<path d="M1050 851 c-12 -24 1 -66 24 -74 18 -7 46 17 46 39 0 48 -49 72 -70
35z"/>
<path d="M822 848 c-15 -15 -16 -60 0 -76 35 -35 79 8 56 56 -15 30 -37 39
-56 20z"/>
<path d="M953 743 c-21 -8 -15 -29 11 -41 20 -9 29 -8 47 7 13 10 19 23 15 29
-7 12 -50 15 -73 5z"/>
<path d="M217 484 c-4 -4 -7 -27 -7 -50 0 -34 7 -51 30 -77 17 -19 30 -44 30
-55 0 -36 11 -52 36 -52 21 0 24 5 24 38 0 30 7 45 35 72 29 28 35 41 35 77 0
31 -5 45 -16 50 -27 10 -49 -11 -52 -51 -3 -31 -7 -36 -27 -36 -24 0 -29 8
-37 65 -3 20 -37 32 -51 19z"/>
<path d="M818 473 c-8 -30 2 -43 33 -43 l29 0 0 -85 c0 -70 3 -87 16 -92 36
-14 49 10 52 95 3 80 3 81 30 84 21 2 27 8 27 28 0 25 -1 25 -91 28 -81 2 -92
1 -96 -15z"/>
<path d="M1234 475 c-10 -25 3 -43 33 -47 28 -3 28 -4 33 -88 5 -83 6 -85 30
-85 24 0 25 2 30 85 5 83 6 85 32 88 28 3 41 22 32 47 -5 12 -25 15 -95 15
-70 0 -91 -3 -95 -15z"/>
<path d="M447 426 c-71 -66 -30 -176 66 -176 59 0 102 42 102 101 0 84 -107
131 -168 75z m76 -57 c4 -15 11 -20 21 -16 19 7 20 3 6 -24 -19 -34 -80 -19
-80 21 0 38 44 53 53 19z"/>
<path d="M681 436 c-90 -50 -51 -186 54 -186 42 0 75 20 94 57 15 29 14 49 -4
88 -25 51 -91 70 -144 41z m62 -67 c4 -15 11 -20 21 -16 19 7 20 3 6 -24 -13
-23 -52 -25 -70 -4 -10 12 -10 21 -2 40 14 31 38 32 45 4z"/>
<path d="M1027 443 c-4 -3 -7 -41 -7 -83 0 -62 4 -80 18 -93 26 -24 78 -22 95
3 l14 21 6 -21 c3 -13 13 -20 31 -20 32 0 38 20 34 120 l-3 75 -30 0 c-29 0
-30 -1 -35 -60 -5 -56 -7 -60 -30 -60 -21 0 -25 5 -28 30 -7 80 -12 95 -36 95
-12 0 -26 -3 -29 -7z"/>
<path d="M1436 435 c-3 -9 -6 -46 -6 -81 0 -51 4 -68 20 -84 27 -27 84 -27
103 0 l14 21 6 -21 c6 -22 36 -27 55 -8 13 13 16 126 6 166 -5 18 -13 22 -33
20 -23 -3 -26 -8 -29 -43 -4 -72 -10 -85 -37 -85 -27 0 -33 13 -37 85 -3 35
-6 40 -29 43 -17 2 -29 -3 -33 -13z"/>
</g>
</svg>
